<svg xmlns="http://www.w3.org/2000/svg" viewBox="0 0 64 64"><linearGradient id="aB9nz5ib0WsdxCaVyBqS8a" x1="42.5" x2="42.5" y1="8.761" y2="25.42" gradientUnits="userSpaceOnUse" spreadMethod="reflect"><stop offset="0" stop-color="#6dc7ff"/><stop offset="1" stop-color="#e6abff"/></linearGradient><path fill="url(#aB9nz5ib0WsdxCaVyBqS8a)" d="M44.267,24.018l-6.99-11.93c-0.561-0.978-0.243-2.238,0.711-2.814l0,0 c0.954-0.576,2.183-0.249,2.744,0.729l6.99,11.93c0.561,0.978,0.243,2.238-0.711,2.814l0,0 C46.058,25.323,44.829,24.996,44.267,24.018z"/><linearGradient id="aB9nz5ib0WsdxCaVyBqS8b" x1="35" x2="35" y1="17.844" y2="26.177" gradientUnits="userSpaceOnUse" spreadMethod="reflect"><stop offset="0" stop-color="#6dc7ff"/><stop offset="1" stop-color="#e6abff"/></linearGradient><path fill="url(#aB9nz5ib0WsdxCaVyBqS8b)" d="M35 19.011A3 3 0 1 0 35 25.011A3 3 0 1 0 35 19.011Z"/><linearGradient id="aB9nz5ib0WsdxCaVyBqS8c" x1="21" x2="21" y1="51.958" y2="54.087" gradientUnits="userSpaceOnUse" spreadMethod="reflect"><stop offset="0" stop-color="#6dc7ff"/><stop offset="1" stop-color="#e6abff"/></linearGradient><path fill="url(#aB9nz5ib0WsdxCaVyBqS8c)" d="M17 52H25V54H17z"/><linearGradient id="aB9nz5ib0WsdxCaVyBqS8d" x1="17" x2="17" y1="46.042" y2="48.168" gradientUnits="userSpaceOnUse" spreadMethod="reflect"><stop offset="0" stop-color="#6dc7ff"/><stop offset="1" stop-color="#e6abff"/></linearGradient><path fill="url(#aB9nz5ib0WsdxCaVyBqS8d)" d="M13 46H21V48H13z"/><linearGradient id="aB9nz5ib0WsdxCaVyBqS8e" x1="13" x2="13" y1="39.958" y2="42.215" gradientUnits="userSpaceOnUse" spreadMethod="reflect"><stop offset="0" stop-color="#6dc7ff"/><stop offset="1" stop-color="#e6abff"/></linearGradient><path fill="url(#aB9nz5ib0WsdxCaVyBqS8e)" d="M8 40H18V42H8z"/><linearGradient id="aB9nz5ib0WsdxCaVyBqS8f" x1="10" x2="10" y1="33.958" y2="36.098" gradientUnits="userSpaceOnUse" spreadMethod="reflect"><stop offset="0" stop-color="#6dc7ff"/><stop offset="1" stop-color="#e6abff"/></linearGradient><path fill="url(#aB9nz5ib0WsdxCaVyBqS8f)" d="M6 34H14V36H6z"/><linearGradient id="aB9nz5ib0WsdxCaVyBqS8g" x1="9" x2="9" y1="27.958" y2="30.209" gradientUnits="userSpaceOnUse" spreadMethod="reflect"><stop offset="0" stop-color="#6dc7ff"/><stop offset="1" stop-color="#e6abff"/></linearGradient><path fill="url(#aB9nz5ib0WsdxCaVyBqS8g)" d="M6 28H12V30H6z"/><linearGradient id="aB9nz5ib0WsdxCaVyBqS8h" x1="36.492" x2="36.492" y1="7.636" y2="56.418" gradientUnits="userSpaceOnUse" spreadMethod="reflect"><stop offset="0" stop-color="#1a6dff"/><stop offset="1" stop-color="#c822ff"/></linearGradient><path fill="url(#aB9nz5ib0WsdxCaVyBqS8h)" d="M56,50.195v-3.184c0-4.963-4.037-9-9-9l-1.383-0.002l-4.876-9.751 c-0.237-0.476-0.063-1.055,0.399-1.318l2.901-1.658c0.348,0.305,0.754,0.536,1.213,0.655c0.247,0.064,0.497,0.096,0.746,0.096 c0.532,0,1.058-0.146,1.527-0.429c1.414-0.853,1.891-2.723,1.058-4.176L41.6,9.506c-0.409-0.713-1.067-1.218-1.854-1.421 c-0.774-0.202-1.583-0.081-2.273,0.333c-0.95,0.573-1.464,1.606-1.455,2.662L18.888,21.898c-0.035-0.011-0.066-0.029-0.102-0.039 c-0.775-0.217-1.583-0.114-2.278,0.281c-0.698,0.395-1.199,1.037-1.413,1.811c-0.214,0.771-0.114,1.581,0.281,2.279l15.439,27.241 C31.701,55.035,33.367,56,35.164,56H55c1.654,0,3-1.34,3-2.995C58,51.704,57.162,50.609,56,50.195z M40.148,25.203 c-1.161,0.664-1.707,1.992-1.434,3.245l-4.086,1.634l0.742,1.857l4.146-1.658l1.103,2.205l-3.99,1.596l0.742,1.857l4.146-1.658 l1.103,2.205l-3.99,1.596l0.742,1.857l4.146-1.658l0.311,0.617C44.17,39.581,44.856,40,45.619,40H47c3.859,0,7,3.151,7,7.011V50 H36.331c-0.359,0-0.693-0.189-0.87-0.501L23.027,27.558l2.899-1.738c1.336-0.802,1.837-2.521,1.14-3.913L26,19.773l10.672-6.74 l6.215,10.606L40.148,25.203z M25.277,22.802c0.232,0.465,0.065,1.037-0.38,1.305l-2.856,1.714l-1.444-2.549 c-0.012-0.021-0.029-0.039-0.042-0.06l3.745-2.365L25.277,22.802z M38.505,10.131c0.154-0.093,0.325-0.141,0.499-0.141 c0.08,0,0.161,0.01,0.24,0.03c0.262,0.068,0.481,0.238,0.626,0.489l6.985,11.922c0.292,0.509,0.131,1.163-0.36,1.459 c-0.226,0.135-0.488,0.176-0.739,0.11c-0.262-0.068-0.481-0.238-0.621-0.481l-6.99-11.93C37.853,11.081,38.014,10.427,38.505,10.131 z M55,54H35.164c-1.077,0-2.077-0.578-2.608-1.515L17.116,25.241c-0.132-0.232-0.165-0.502-0.094-0.759 c0.071-0.257,0.238-0.47,0.471-0.602c0.152-0.087,0.321-0.131,0.491-0.131c0.09,0,0.18,0.013,0.269,0.037 c0.258,0.071,0.472,0.238,0.604,0.471l14.865,26.228C34.254,51.423,35.254,52,36.331,52H55c0.552,0,1,0.448,1,1S55.552,54,55,54z"/></svg>